<svg xmlns:xlink="http://www.w3.org/1999/xlink" width="24" height="24" viewBox="0 0 24 24" xmlns="http://www.w3.org/2000/svg"><path d="M17.9 9v2h3.5c.2 0 .5.1.6.2.3.2.4.6.3 1-.1.4-.4.6-.8.6H17.9V15.5c0 .8-.8 1.2-1.4.9-.3-.2-.5-.5-.5-.9v-2-5.1c0-.7.4-1.1 1.1-1.1H22c.5 0 .9.3 1 .7.1.6-.3 1-.9 1h-4.2zM7.7 12.8H6.3c-.2 0-.4-.1-.5-.1-.3-.2-.4-.5-.3-.9.1-.3.4-.6.7-.6h2.6c.4 0 .8.4.8.9v2.5c0 .5-.3.8-.7 1.1-1.1.6-2.2 1-3.5.9-1.8-.1-3.3-.9-4-2.7-1.2-2.6.1-5.9 3.3-6.6 1.4-.3 2.8-.1 4.1.7.4.2.5.6.4 1-.1.4-.3.6-.7.7-.3.1-.6 0-.8-.2-.5-.3-1-.5-1.5-.6-1.5-.2-2.9.9-3.1 2.4-.1.6 0 1.2.2 1.8.5 1.2 1.7 1.9 3 1.7.5-.1 1-.2 1.4-.5.1-.1.2-.2.2-.3-.2-.4-.2-.8-.2-1.2zm5.9-1v3.6c0 .7-.5 1.1-1.2 1-.4-.1-.7-.4-.7-.8v-.3-7c0-.2 0-.4.1-.6.2-.4.6-.6 1.1-.5.4.1.7.5.7.9v3.7z" fill="#F1F1F2"></path></svg>